<svg width="16" height="16" viewBox="0 0 16 16" fill="none" xmlns="http://www.w3.org/2000/svg">
<path d="M12.8016 14H3.20156C3.04243 14 2.88982 13.9368 2.7773 13.8243C2.66478 13.7117 2.60156 13.5591 2.60156 13.4V2.6C2.60156 2.44087 2.66478 2.28826 2.7773 2.17574C2.88982 2.06321 3.04243 2 3.20156 2H12.8016C12.9607 2 13.1133 2.06321 13.2258 2.17574C13.3383 2.28826 13.4016 2.44087 13.4016 2.6V13.4C13.4016 13.5591 13.3383 13.7117 13.2258 13.8243C13.1133 13.9368 12.9607 14 12.8016 14ZM12.2016 12.8V3.2H3.80156V12.8H12.2016ZM5.60156 6.2H10.4016V7.4H5.60156V6.2ZM5.60156 8.6H10.4016V9.8H5.60156V8.6Z" fill="#565865"/>
</svg>
