<svg width="16" height="16" viewBox="0 0 16 16" fill="none" xmlns="http://www.w3.org/2000/svg">
<path d="M6.80156 4.4001V5.6001H3.80156V12.2001H10.4016V9.2001H11.6016V12.8001C11.6016 12.9592 11.5383 13.1118 11.4258 13.2244C11.3133 13.3369 11.1607 13.4001 11.0016 13.4001H3.20156C3.04243 13.4001 2.88982 13.3369 2.7773 13.2244C2.66478 13.1118 2.60156 12.9592 2.60156 12.8001V5.0001C2.60156 4.84097 2.66478 4.68836 2.7773 4.57583C2.88982 4.46331 3.04243 4.4001 3.20156 4.4001H6.80156ZM13.4016 2.6001V7.4001H12.2016V4.6479L7.52576 9.3243L6.67736 8.4759L11.3526 3.8001H8.60156V2.6001H13.4016Z" fill="#565865"/>
</svg>
